<svg width="38" height="38" viewBox="0 0 38 38" fill="none" xmlns="http://www.w3.org/2000/svg">
<path d="M3.74047 23.9332C3.37497 24.0342 2.99554 23.82 2.8943 23.453C-0.343566 11.719 9.70134 0.473385 21.8082 2.52353C22.1828 2.58695 22.4352 2.94216 22.3717 3.31683C22.3083 3.69142 21.953 3.94375 21.5785 3.88033C10.4977 2.00413 1.24058 12.2866 4.22081 23.0869C4.32188 23.4533 4.10675 23.8322 3.74047 23.9332Z" fill="#9D7E6C"/>
<path d="M14.5473 35.1061C14.181 35.005 13.966 34.6261 14.067 34.2599C14.1682 33.8934 14.5473 33.6785 14.9132 33.7796C25.7224 36.7621 35.9933 27.4848 34.12 16.4225C34.0566 16.0478 34.3089 15.6926 34.6835 15.6292C35.0583 15.5659 35.4134 15.8181 35.4768 16.1928C37.5281 28.3064 26.2719 38.3413 14.5473 35.1061Z" fill="#9D7E6C"/>
<path fill-rule="evenodd" clip-rule="evenodd" d="M35.7115 7.78318C35.7115 10.8124 33.2464 13.2775 30.2172 13.2775C27.1879 13.2775 24.7229 10.8124 24.7229 7.78318C24.7229 4.75397 27.188 2.28888 30.2172 2.28888C33.2464 2.28888 35.7115 4.75397 35.7115 7.78318ZM34.3354 7.78318C34.3354 5.51211 32.4883 3.66499 30.2172 3.66499C27.946 3.66499 26.099 5.51211 26.099 7.78318C26.099 10.0543 27.946 11.9014 30.2172 11.9014C32.4883 11.9014 34.3354 10.0543 34.3354 7.78318Z" fill="#9D7E6C"/>
<path fill-rule="evenodd" clip-rule="evenodd" d="M3.36177 30.2123C3.36177 27.772 5.34771 25.7861 7.78802 25.7861C10.2283 25.7861 12.2143 27.772 12.2143 30.2123C12.2143 32.6526 10.2283 34.6386 7.78802 34.6386C5.34771 34.6386 3.36177 32.6526 3.36177 30.2123ZM4.73788 30.2123C4.73788 31.8945 6.10584 33.2625 7.78802 33.2625C9.4702 33.2625 10.8382 31.8945 10.8382 30.2123C10.8382 28.5301 9.4702 27.1622 7.78802 27.1622C6.10584 27.1622 4.73788 28.5301 4.73788 30.2123Z" fill="#9D7E6C"/>
<path fill-rule="evenodd" clip-rule="evenodd" d="M20.0705 23.4241H16.4863V25.4061C16.4863 25.7861 16.1782 26.0942 15.7983 26.0942C15.4183 26.0942 15.1102 25.7861 15.1102 25.4061V23.4241H13.6622C13.2822 23.4241 12.9741 23.116 12.9741 22.736C12.9741 22.356 13.2822 22.0479 13.6622 22.0479H15.1102V12.5895C15.1102 12.2095 15.4183 11.9014 15.7983 11.9014H20.0705C22.2164 11.9014 23.9627 13.6478 23.9627 15.7936C23.9627 17.9395 22.2164 19.6859 20.0705 19.6859H16.4863V22.0479H20.0705C20.4505 22.0479 20.7586 22.356 20.7586 22.736C20.7586 23.116 20.4505 23.4241 20.0705 23.4241ZM16.4863 13.2775V18.3098H20.0705C21.4582 18.3098 22.5866 17.1814 22.5866 15.7936C22.5866 14.4059 21.4582 13.2775 20.0705 13.2775H16.4863Z" fill="#9D7E6C"/>
</svg>
