<svg width="38" height="38" viewBox="0 0 38 38" fill="none" xmlns="http://www.w3.org/2000/svg">
<path fill-rule="evenodd" clip-rule="evenodd" d="M34.3899 24.6999H28.8677H26.5877H18.7931H17.4765H8.35928L14.7227 21.0253L14.73 21.0212L15.1947 20.7526L16.6528 23.275L17.6153 22.6625L16.1818 20.1825L22.1045 16.7625L25.3042 22.3047L26.305 21.7576L23.0919 16.1923L28.5214 13.057C28.5859 13.019 28.6572 12.9942 28.7313 12.9841C28.8054 12.974 28.8807 12.9788 28.953 12.9982C29.1001 13.0378 29.2257 13.1339 29.3024 13.2656L33.2912 20.173C33.3288 20.2379 33.3532 20.3097 33.3629 20.3841C33.3725 20.4585 33.3674 20.5341 33.3476 20.6065C33.3279 20.679 33.294 20.7467 33.2479 20.806C33.2018 20.8652 33.1444 20.9147 33.0791 20.9516L29.7147 22.8941L30.2882 23.8797L33.6476 21.9399C33.8427 21.8283 34.0138 21.6793 34.1512 21.5014C34.2886 21.3235 34.3895 21.1202 34.4481 20.9032C34.5069 20.6862 34.5222 20.4598 34.4933 20.2369C34.4643 20.014 34.3916 19.799 34.2793 19.6043L30.2882 12.6935C30.1756 12.4989 30.0258 12.3284 29.8473 12.1918C29.6688 12.0552 29.4651 11.9552 29.2479 11.8974C29.0307 11.8385 28.8041 11.8235 28.5811 11.8533C28.3581 11.8831 28.1433 11.9571 27.9493 12.0709L23.1683 14.8318L21.2375 15.8955L21.1931 15.9723L14.4451 19.8692L13.3051 20.5275L6.07924 24.6999H5.62889L9.35489 18.2465L11.7064 19.6043L12.35 18.6595L9.9248 17.2591L13.3435 11.338L19.2284 14.7356L19.8452 13.775L13.9136 10.3506L17.0494 4.91911C17.0864 4.85418 17.1359 4.7972 17.195 4.75144C17.2541 4.70568 17.3216 4.67205 17.3938 4.65246C17.4659 4.6328 17.5412 4.62757 17.6153 4.63706C17.6895 4.64655 17.761 4.67058 17.8259 4.70776L24.732 8.69654C24.8648 8.77296 24.9619 8.899 25.0019 9.04696C25.041 9.19391 25.0193 9.35021 24.9415 9.48087L23.1683 12.552L24.1931 13.057L25.9276 10.0531C26.041 9.85852 26.1148 9.64345 26.1448 9.42024C26.1749 9.19703 26.1605 8.97009 26.1026 8.75245C26.0447 8.53481 25.9443 8.33075 25.8073 8.152C25.6703 7.97324 25.4994 7.82331 25.3042 7.71082L18.3944 3.7197C18.1998 3.60792 17.985 3.53557 17.7624 3.50679C17.5398 3.47801 17.3136 3.49337 17.097 3.55199C16.8803 3.61061 16.6772 3.71133 16.4995 3.84842C16.3217 3.9855 16.1727 4.15626 16.061 4.35094L13.3001 9.13339L12.1602 11.0201V11.1076L8.65746 17.1746C8.65566 17.1775 8.65279 17.1787 8.65092 17.1819L8.64784 17.191L8.26162 17.8601L7.60334 19L4.31253 24.6999H3.61016C3.41551 24.702 3.22267 24.7375 3.03998 24.8051V19H5.70002V17.8601H3.03998V11.0201H10.45V9.87991H3.03998V3.61016C3.04021 3.45901 3.10036 3.31411 3.20723 3.20723C3.31411 3.10036 3.45901 3.04021 3.61016 3.03998H11.59C11.7411 3.04021 11.886 3.10036 11.9929 3.20723C12.0998 3.31411 12.1599 3.45901 12.1602 3.61016V7.01204H13.3001V3.61016C13.299 2.66612 12.534 1.90109 11.59 1.90002H3.61016C2.66612 1.90109 1.90109 2.66612 1.90002 3.61016V34.3899C1.90109 35.3339 2.66612 36.099 3.61016 36.1H34.3899C35.3339 36.099 36.099 35.3339 36.1 34.3899V26.4101C36.099 25.466 35.3339 24.701 34.3899 24.6999ZM19 25.8399H12.1602H11.0201H3.61016C3.45901 25.8401 3.31411 25.9003 3.20723 26.0071C3.10036 26.114 3.04021 26.2589 3.03998 26.4101V34.3899C3.04021 34.541 3.10036 34.6859 3.20723 34.7928C3.31411 34.8997 3.45901 34.9598 3.61016 34.9601H11.0201H12.1602H19H20.14H26.9799H28.1201H34.3899C34.541 34.9598 34.6859 34.8997 34.7928 34.7928C34.8997 34.6859 34.9598 34.541 34.9601 34.3899V26.4101C34.9598 26.2589 34.8997 26.114 34.7928 26.0071C34.6859 25.9003 34.541 25.8401 34.3899 25.8399H28.1201H26.9799H20.14H19Z" fill="#9D7E6C"/>
<path d="M11.0201 27.075H12.1602V33.725H11.0201V27.075Z" fill="#9D7E6C"/>
<path d="M19 27.075H20.14V33.725H19V27.075Z" fill="#9D7E6C"/>
<path d="M26.9799 27.075H28.1201V33.725H26.9799V27.075Z" fill="#9D7E6C"/>
<path d="M7.59992 28.1201C6.34067 28.1201 5.31995 29.1408 5.31995 30.4001C5.31995 31.6593 6.34067 32.6801 7.59992 32.6801C8.85918 32.6801 9.8799 31.6593 9.8799 30.4001C9.87856 29.1414 8.85858 28.1215 7.59992 28.1201ZM7.59992 31.5401C6.9703 31.5401 6.45997 31.0297 6.45997 30.4001C6.45997 29.7705 6.9703 29.2601 7.59992 29.2601C8.22955 29.2601 8.73988 29.7705 8.73988 30.4001C8.73941 31.0295 8.22928 31.5394 7.59992 31.5401Z" fill="#9D7E6C"/>
</svg>
