<svg width="38" height="38" viewBox="0 0 38 38" fill="none" xmlns="http://www.w3.org/2000/svg">
<path fill-rule="evenodd" clip-rule="evenodd" d="M19.001 22.1043C15.2747 22.1043 12.2251 19.0594 12.2251 15.3468V11.9343H25.7749V15.3468C25.7749 19.0595 22.7252 22.1043 19.001 22.1043ZM11.0851 15.3468C11.0851 19.6916 14.6476 23.2443 19.001 23.2443C23.3524 23.2443 26.9149 19.6915 26.9149 15.3468V11.3643C26.9149 11.0495 26.6597 10.7943 26.3449 10.7943H11.6551C11.3403 10.7943 11.0851 11.0495 11.0851 11.3643V15.3468Z" fill="#9D7E6C"/>
<path fill-rule="evenodd" clip-rule="evenodd" d="M4.75188 37.8279C5.06669 37.8279 5.32188 37.5727 5.32188 37.2579V33.1597C5.32188 31.5178 5.77539 30.2747 6.48677 29.3082C7.20384 28.334 8.20761 27.6078 9.35412 27.0487C11.1487 26.1737 13.1852 25.7496 14.8831 25.396C15.3857 25.2913 15.8586 25.1928 16.2868 25.0907C16.5435 25.0294 16.7245 24.8001 16.7245 24.5362V22.0979C16.7245 21.7831 16.4693 21.5279 16.1545 21.5279C15.8397 21.5279 15.5845 21.7831 15.5845 22.0979V24.0814C15.3225 24.1387 15.0397 24.1974 14.7406 24.2595C13.0327 24.614 10.7926 25.079 8.85448 26.0241C7.59996 26.6358 6.42752 27.4656 5.56865 28.6325C4.70408 29.8071 4.18188 31.2904 4.18188 33.1597V37.2579C4.18188 37.5727 4.43708 37.8279 4.75188 37.8279ZM33.2479 37.8279C33.5627 37.8279 33.8179 37.5727 33.8179 37.2579V33.1597C33.8179 31.2904 33.2958 29.8071 32.4312 28.6325C31.5723 27.4656 30.3999 26.6358 29.1453 26.0241C27.2072 25.079 24.9672 24.614 23.2593 24.2595C22.9601 24.1974 22.6773 24.1387 22.4153 24.0814V22.0979C22.4153 21.7831 22.1601 21.5279 21.8453 21.5279C21.5305 21.5279 21.2753 21.7831 21.2753 22.0979V24.5362C21.2753 24.8001 21.4564 25.0294 21.713 25.0907C22.1412 25.1928 22.6141 25.2913 23.1167 25.396C24.8146 25.7496 26.8511 26.1737 28.6457 27.0487C29.7922 27.6078 30.796 28.334 31.5131 29.3082C32.2244 30.2747 32.6779 31.5178 32.6779 33.1597V37.2579C32.6779 37.5727 32.9331 37.8279 33.2479 37.8279ZM8.92997 37.05C8.92997 37.3648 9.18517 37.62 9.49997 37.62H28.025C28.3398 37.62 28.595 37.3648 28.595 37.05C28.595 36.7351 28.3398 36.48 28.025 36.48H9.49997C9.18517 36.48 8.92997 36.7351 8.92997 37.05Z" fill="#9D7E6C"/>
<path fill-rule="evenodd" clip-rule="evenodd" d="M25.7748 15.1154C25.7748 15.4302 26.03 15.6854 26.3448 15.6854H27.5277C28.8748 15.6854 29.9763 14.5873 29.9763 13.2388C29.9763 11.892 28.8744 10.7943 27.5277 10.7943H26.3448C26.03 10.7943 25.7748 11.0495 25.7748 11.3643C25.7748 11.6791 26.03 11.9343 26.3448 11.9343H27.5277C28.2472 11.9343 28.8363 12.524 28.8363 13.2388C28.8363 13.9562 28.2468 14.5454 27.5277 14.5454H26.3448C26.03 14.5454 25.7748 14.8006 25.7748 15.1154Z" fill="#9D7E6C"/>
<path fill-rule="evenodd" clip-rule="evenodd" d="M10.4722 14.5454C9.7531 14.5454 9.16356 13.9562 9.16356 13.2388C9.16356 12.524 9.75267 11.9343 10.4722 11.9343H11.6551C11.9699 11.9343 12.2251 11.6791 12.2251 11.3643C12.2251 11.0495 11.9699 10.7943 11.6551 10.7943H10.4722C9.12544 10.7943 8.02356 11.892 8.02356 13.2388C8.02356 14.5873 9.12502 15.6854 10.4722 15.6854H11.6551C11.9699 15.6854 12.2251 15.4302 12.2251 15.1154C12.2251 14.8006 11.9699 14.5454 11.6551 14.5454H10.4722Z" fill="#9D7E6C"/>
<path fill-rule="evenodd" clip-rule="evenodd" d="M15.5845 24.5362C15.5845 26.4129 17.1204 27.9463 19.0009 27.9463C20.8796 27.9463 22.4153 26.4127 22.4153 24.5362C22.4153 24.2214 22.1601 23.9662 21.8453 23.9662C21.5304 23.9662 21.2753 24.2214 21.2753 24.5362C21.2753 25.7818 20.2513 26.8063 19.0009 26.8063C17.7482 26.8063 16.7245 25.7815 16.7245 24.5362C16.7245 24.2214 16.4693 23.9662 16.1545 23.9662C15.8397 23.9662 15.5845 24.2214 15.5845 24.5362Z" fill="#9D7E6C"/>
<path fill-rule="evenodd" clip-rule="evenodd" d="M16.6508 5.29255C16.6969 5.56707 16.9345 5.76813 17.2129 5.76813H20.7868C21.0652 5.76813 21.3028 5.56707 21.349 5.29255L22.0974 0.836695C22.1252 0.671332 22.0788 0.502127 21.9705 0.374114C21.8622 0.246101 21.703 0.17227 21.5353 0.17227H16.4644C16.2967 0.17227 16.1376 0.246101 16.0293 0.374114C15.921 0.502127 15.8745 0.671332 15.9023 0.836695L16.6508 5.29255ZM17.6951 4.62813L17.1381 1.31227H20.8616L20.3046 4.62813H17.6951Z" fill="#9D7E6C"/>
<path fill-rule="evenodd" clip-rule="evenodd" d="M9.90222 11.3644C9.90222 11.6792 10.1574 11.9344 10.4722 11.9344H27.5277C27.8425 11.9344 28.0977 11.6792 28.0977 11.3644V10.0978C28.0977 6.97021 26.4918 4.20141 24.0684 2.56868C23.8073 2.39278 23.4531 2.46183 23.2772 2.72291C23.1013 2.98399 23.1703 3.33822 23.4314 3.51412C25.5572 4.94634 26.9577 7.36929 26.9577 10.0978V10.7944H11.0422V10.0978C11.0422 7.36929 12.4427 4.94633 14.5685 3.51412C14.8296 3.33822 14.8986 2.98398 14.7227 2.72291C14.5468 2.46183 14.1926 2.39278 13.9315 2.56868C11.5081 4.20142 9.90222 6.97022 9.90222 10.0978V11.3644Z" fill="#9D7E6C"/>
<path fill-rule="evenodd" clip-rule="evenodd" d="M9.2282 34.9778C9.54301 34.9778 9.7982 34.7226 9.7982 34.4078V29.3253C9.7982 29.0105 9.54301 28.7553 9.2282 28.7553C8.9134 28.7553 8.6582 29.0105 8.6582 29.3253V34.4078C8.6582 34.7226 8.9134 34.9778 9.2282 34.9778Z" fill="#9D7E6C"/>
<path fill-rule="evenodd" clip-rule="evenodd" d="M28.7717 34.9778C29.0865 34.9778 29.3417 34.7226 29.3417 34.4078V29.3279C29.3417 29.0131 29.0865 28.7579 28.7717 28.7579C28.4569 28.7579 28.2017 29.0131 28.2017 29.3279V34.4078C28.2017 34.7226 28.4569 34.9778 28.7717 34.9778Z" fill="#9D7E6C"/>
<path fill-rule="evenodd" clip-rule="evenodd" d="M12.4155 31.9141C12.4155 32.2289 12.6707 32.4841 12.9855 32.4841H25.0144C25.3292 32.4841 25.5844 32.2289 25.5844 31.9141V25.2283C25.5844 24.9135 25.3292 24.6583 25.0144 24.6583C24.6996 24.6583 24.4444 24.9135 24.4444 25.2283V31.3441H13.5555V25.2283C13.5555 24.9135 13.3003 24.6583 12.9855 24.6583C12.6707 24.6583 12.4155 24.9135 12.4155 25.2283V31.9141Z" fill="#9D7E6C"/>
<path fill-rule="evenodd" clip-rule="evenodd" d="M15.7111 8.28016C15.7111 8.59496 15.9663 8.85016 16.2811 8.85016H21.7188C22.0336 8.85016 22.2888 8.59496 22.2888 8.28016C22.2888 7.96536 22.0336 7.71016 21.7188 7.71016H16.2811C15.9663 7.71016 15.7111 7.96536 15.7111 8.28016Z" fill="#9D7E6C"/>
</svg>
