<svg width="38" height="38" viewBox="0 0 38 38" fill="none" xmlns="http://www.w3.org/2000/svg">
<g clip-path="url(#clip0_14_737)">
<path d="M7.20417 34.9521C7.20417 35.1201 7.13744 35.2812 7.01867 35.3999C6.89989 35.5187 6.7388 35.5854 6.57083 35.5854H0.633333C0.465363 35.5854 0.304272 35.5187 0.185499 35.3999C0.066726 35.2812 0 35.1201 0 34.9521C0 34.7841 0.066726 34.623 0.185499 34.5043C0.304272 34.3855 0.465363 34.3188 0.633333 34.3188H6.57083C6.7388 34.3188 6.89989 34.3855 7.01867 34.5043C7.13744 34.623 7.20417 34.7841 7.20417 34.9521ZM14.725 7.00626C17.1695 7.00626 19.1583 8.99509 19.1583 11.4396V12.5479C19.1583 12.7159 19.0916 12.877 18.9728 12.9958C18.8541 13.1145 18.693 13.1813 18.525 13.1813H10.925C10.757 13.1813 10.5959 13.1145 10.4772 12.9958C10.3584 12.877 10.2917 12.7159 10.2917 12.5479V11.4396C10.2917 8.99509 12.2805 7.00626 14.725 7.00626ZM11.5583 11.4396V11.9146H17.8917V11.4396C17.8917 9.69349 16.4711 8.27293 14.725 8.27293C12.9789 8.27293 11.5583 9.69349 11.5583 11.4396ZM5.26458 33.0521C5.34783 33.0521 5.43025 33.0357 5.50715 33.0038C5.58405 32.9719 5.6539 32.9252 5.71273 32.8663C5.77155 32.8074 5.81818 32.7375 5.84996 32.6605C5.88173 32.5836 5.89803 32.5011 5.89792 32.4179L5.86467 7.66445C5.86174 5.46378 7.64172 3.68126 9.84255 3.68126H10.1139C11.3837 3.68126 12.5475 4.2663 13.3069 5.28636C13.4083 5.41793 13.5574 5.50436 13.722 5.52705C13.8866 5.54974 14.0535 5.50686 14.1867 5.40766C14.32 5.30846 14.4089 5.16087 14.4344 4.9967C14.4599 4.83253 14.4198 4.66493 14.3229 4.53001C13.3368 3.20547 11.7633 2.41467 10.1139 2.41467H9.84255C6.94118 2.41467 4.59412 4.76458 4.598 7.66619L4.63125 32.4196C4.63148 32.5874 4.69831 32.7483 4.81706 32.8669C4.9358 32.9855 5.09676 33.0521 5.26458 33.0521ZM35.15 24.4229V20.2934C35.15 18.4234 33.6287 16.9021 31.7587 16.9021H14.4746C12.6047 16.9021 11.0833 18.4234 11.0833 20.2934V21.8104C11.0833 21.9784 11.1501 22.1395 11.2688 22.2583C11.3876 22.377 11.5487 22.4438 11.7167 22.4438C11.8846 22.4438 12.0457 22.377 12.1645 22.2583C12.2833 22.1395 12.35 21.9784 12.35 21.8104V20.2934C12.35 19.1218 13.3031 18.1688 14.4746 18.1688H22.5625V25.2938C22.5625 25.4617 22.6292 25.6228 22.748 25.7416C22.8668 25.8604 23.0279 25.9271 23.1958 25.9271C23.3638 25.9271 23.5249 25.8604 23.6437 25.7416C23.7624 25.6228 23.8292 25.4617 23.8292 25.2938V18.1688H31.7587C32.9302 18.1688 33.8833 19.1218 33.8833 20.2934V24.4397C32.4611 24.593 31.35 25.8003 31.35 27.2626V27.8271C31.35 27.9951 31.4167 28.1562 31.5355 28.2749C31.6543 28.3937 31.8154 28.4604 31.9833 28.4604C32.1513 28.4604 32.3124 28.3937 32.4312 28.2749C32.5499 28.1562 32.6167 27.9951 32.6167 27.8271V27.2626C32.6167 26.3953 33.3223 25.6896 34.1896 25.6896H35.1604C36.0277 25.6896 36.7333 26.3953 36.7333 27.2626V32.7458C36.7333 33.6131 36.0277 34.3188 35.1604 34.3188H32.6167C32.6167 30.1737 32.6198 30.4287 32.6112 30.3605C32.6595 29.9738 32.3571 29.648 31.9833 29.648H17.8125C17.6445 29.648 17.4834 29.7147 17.3647 29.8335C17.2459 29.9523 17.1792 30.1134 17.1792 30.2813C17.1792 30.4493 17.2459 30.6104 17.3647 30.7292C17.4834 30.8479 17.6445 30.9147 17.8125 30.9147H31.35V34.9522C31.35 35.1201 31.4167 35.2812 31.5355 35.4C31.6543 35.5188 31.8154 35.5855 31.9833 35.5855H35.1604C36.7261 35.5855 38 34.3116 38 32.7458V27.2626C38 25.7173 36.7508 24.4229 35.15 24.4229ZM28.7375 34.3188H11.2314C10.364 34.3188 9.65833 33.6131 9.65833 32.7457V27.2626C9.65833 26.3953 10.364 25.6896 11.2314 25.6896H12.202C13.0694 25.6896 13.7751 26.3953 13.7751 27.2626V30.8354C13.7751 31.0034 13.8418 31.1645 13.9606 31.2833C14.0794 31.402 14.2404 31.4688 14.4084 31.4688C14.5764 31.4688 14.7375 31.402 14.8562 31.2833C14.975 31.1645 15.0417 31.0034 15.0417 30.8354V27.2626C15.0417 25.6968 13.7679 24.4229 12.202 24.4229H11.2314C9.66554 24.4229 8.39167 25.6968 8.39167 27.2626V32.7458C8.39167 34.3116 9.66554 35.5855 11.2314 35.5855H28.7375C28.9055 35.5855 29.0666 35.5188 29.1854 35.4C29.3041 35.2812 29.3709 35.1201 29.3709 34.9521C29.3709 34.7841 29.3041 34.6231 29.1854 34.5043C29.0666 34.3855 28.9055 34.3188 28.7375 34.3188Z" fill="#9D7E6C"/>
</g>
<defs>
<clipPath id="clip0_14_737">
<rect width="38" height="38" fill="white"/>
</clipPath>
</defs>
</svg>
