<svg width="12" height="10" viewBox="0 0 12 10" fill="none" xmlns="http://www.w3.org/2000/svg">
<path d="M1.95 0.5H10.05C10.5481 0.499969 11.0273 0.678624 11.3893 0.999315C11.7514 1.32001 11.9688 1.75842 11.997 2.22462L12 2.32812V7.67188C12 8.13883 11.8095 8.58809 11.4674 8.92751C11.1253 9.26692 10.6577 9.47075 10.1604 9.49719L10.05 9.5H1.95C1.45192 9.50003 0.972703 9.32138 0.610661 9.00068C0.24862 8.67999 0.0311992 8.24158 0.00300007 7.77537L4.18511e-09 7.67188V2.32812C-3.2608e-05 1.86117 0.190532 1.41191 0.532603 1.0725C0.874674 0.733081 1.34232 0.529249 1.8396 0.502813L1.95 0.5ZM11.1 3.52231L6.21 5.93544C6.15478 5.96278 6.0941 5.97906 6.03181 5.98322C5.96953 5.98738 5.907 5.97935 5.8482 5.95963L5.7906 5.936L0.9 3.52287V7.67188C0.90001 7.91892 0.999103 8.15693 1.17761 8.33866C1.35611 8.52039 1.60098 8.63255 1.8636 8.65287L1.95 8.65625H10.05C10.3136 8.65623 10.5676 8.56325 10.7614 8.39579C10.9553 8.22832 11.0749 7.99862 11.0964 7.75231L11.1 7.67188V3.52231ZM10.05 1.34375H1.95C1.68649 1.34376 1.43261 1.43666 1.23877 1.60401C1.04492 1.77136 0.925283 2.00092 0.9036 2.24712L0.9 2.32812V2.56944L6 5.0855L11.1 2.56888V2.32812C11.1 2.08099 11.0008 1.84291 10.8222 1.66116C10.6435 1.47942 10.3985 1.36732 10.1358 1.34713L10.05 1.34375Z" fill="#9D7E6C"/>
</svg>
