<svg width="11" height="14" viewBox="0 0 11 14" fill="none" xmlns="http://www.w3.org/2000/svg">
<path d="M7.56247 6.06274C7.56247 6.56002 7.36493 7.03694 7.01329 7.38857C6.66166 7.7402 6.18475 7.93774 5.68747 7.93774C5.19019 7.93774 4.71327 7.7402 4.36164 7.38857C4.01001 7.03694 3.81247 6.56002 3.81247 6.06274C3.81247 5.56546 4.01001 5.08855 4.36164 4.73692C4.71327 4.38529 5.19019 4.18774 5.68747 4.18774C6.18475 4.18774 6.66166 4.38529 7.01329 4.73692C7.36493 5.08855 7.56247 5.56546 7.56247 6.06274Z" stroke="#9D7E6C" stroke-linecap="round" stroke-linejoin="round"/>
<path d="M10.375 6.06262C10.375 10.5264 5.68747 13.0939 5.68747 13.0939C5.68747 13.0939 0.999969 10.5264 0.999969 6.06262C0.999969 4.81942 1.49383 3.62714 2.37291 2.74806C3.25198 1.86898 4.44427 1.37512 5.68747 1.37512C6.93067 1.37512 8.12295 1.86898 9.00203 2.74806C9.88111 3.62714 10.375 4.81942 10.375 6.06262Z" stroke="#9D7E6C" stroke-linecap="round" stroke-linejoin="round"/>
</svg>
