<svg width="142" height="35" viewBox="0 0 142 35" fill="none" xmlns="http://www.w3.org/2000/svg">
<path d="M129.899 20.0064C129.41 20.0064 129.029 19.8794 128.757 19.6255C128.503 19.3534 128.376 18.9725 128.376 18.4827V2.34851C128.376 1.85877 128.503 1.48693 128.757 1.23299C129.029 0.960914 129.41 0.824875 129.899 0.824875H139.83C140.211 0.824875 140.501 0.924638 140.701 1.12416C140.9 1.30555 141 1.57762 141 1.9404C141 2.32131 140.9 2.61152 140.701 2.81105C140.501 3.01057 140.211 3.11033 139.83 3.11033H131.096V9.12326H139.232C139.631 9.12326 139.921 9.22302 140.102 9.42254C140.302 9.62207 140.401 9.90321 140.401 10.266C140.401 10.6469 140.302 10.9371 140.102 11.1366C139.921 11.318 139.631 11.4087 139.232 11.4087H131.096V17.7209H139.83C140.211 17.7209 140.501 17.8207 140.701 18.0202C140.9 18.2197 141 18.5009 141 18.8636C141 19.2446 140.9 19.5348 140.701 19.7343C140.501 19.9157 140.211 20.0064 139.83 20.0064H129.899Z" fill="#9E8170"/>
<path d="M106.301 20.1968C105.884 20.1968 105.557 20.0789 105.322 19.8431C105.104 19.6073 104.995 19.2808 104.995 18.8636V1.9676C104.995 1.53227 105.113 1.20578 105.349 0.988115C105.585 0.752315 105.902 0.634415 106.301 0.634415C106.682 0.634415 106.972 0.706969 107.172 0.852076C107.389 0.979046 107.589 1.21485 107.77 1.55948L114.899 14.8641H114.055L121.157 1.55948C121.338 1.21485 121.528 0.979046 121.728 0.852076C121.927 0.706969 122.218 0.634415 122.599 0.634415C122.998 0.634415 123.306 0.752315 123.524 0.988115C123.741 1.20578 123.85 1.53227 123.85 1.9676V18.8636C123.85 19.2808 123.741 19.6073 123.524 19.8431C123.324 20.0789 123.016 20.1968 122.599 20.1968C122.181 20.1968 121.864 20.0789 121.646 19.8431C121.429 19.6073 121.32 19.2808 121.32 18.8636V4.82442H121.918L115.606 16.4966C115.461 16.7686 115.307 16.9682 115.144 17.0951C114.98 17.2221 114.754 17.2856 114.463 17.2856C114.173 17.2856 113.937 17.2221 113.756 17.0951C113.575 16.95 113.411 16.7505 113.266 16.4966L106.9 4.79721H107.553V18.8636C107.553 19.2808 107.444 19.6073 107.226 19.8431C107.027 20.0789 106.718 20.1968 106.301 20.1968Z" fill="#9E8170"/>
<path d="M92.1696 20.2512C90.3558 20.2512 88.7686 19.8522 87.4083 19.0541C86.066 18.2379 85.023 17.0951 84.2794 15.6259C83.5538 14.1386 83.191 12.3973 83.191 10.402C83.191 8.89652 83.3996 7.5452 83.8168 6.34806C84.234 5.13277 84.8326 4.09888 85.6125 3.24637C86.3925 2.37572 87.3357 1.71366 88.4421 1.2602C89.5486 0.806734 90.7911 0.580002 92.1696 0.580002C94.0016 0.580002 95.5887 0.97905 96.931 1.77715C98.2732 2.57524 99.3071 3.7089 100.033 5.17812C100.776 6.64734 101.148 8.37957 101.148 10.3748C101.148 11.8803 100.94 13.2407 100.522 14.456C100.105 15.6713 99.4976 16.7142 98.6995 17.5849C97.9195 18.4555 96.9763 19.1176 95.8699 19.5711C94.7634 20.0245 93.53 20.2512 92.1696 20.2512ZM92.1696 17.8025C93.4393 17.8025 94.5186 17.5123 95.4073 16.9319C96.3143 16.3515 97.0035 15.508 97.4751 14.4016C97.9649 13.2951 98.2098 11.9619 98.2098 10.402C98.2098 8.06215 97.6837 6.24829 96.6317 4.96046C95.5797 3.67262 94.0923 3.02871 92.1696 3.02871C90.8999 3.02871 89.8116 3.31892 88.9047 3.89935C88.0159 4.46165 87.3266 5.29602 86.8369 6.40247C86.3653 7.50892 86.1295 8.84211 86.1295 10.402C86.1295 12.7238 86.6555 14.5376 87.7075 15.8436C88.7777 17.1496 90.2651 17.8025 92.1696 17.8025Z" fill="#9E8170"/>
<path d="M64.4013 20.1968C63.9479 20.1968 63.5942 20.0699 63.3402 19.8159C63.1044 19.562 62.9865 19.2083 62.9865 18.7548V2.07643C62.9865 1.60483 63.1044 1.25112 63.3402 1.01532C63.5942 0.761385 63.9479 0.634415 64.4013 0.634415C64.8548 0.634415 65.1994 0.761385 65.4352 1.01532C65.6892 1.25112 65.8162 1.60483 65.8162 2.07643V9.09604H76.5632V2.07643C76.5632 1.60483 76.6811 1.25112 76.9169 1.01532C77.1709 0.761385 77.5246 0.634415 77.978 0.634415C78.4315 0.634415 78.7761 0.761385 79.0119 1.01532C79.2477 1.25112 79.3656 1.60483 79.3656 2.07643V18.7548C79.3656 19.2083 79.2477 19.562 79.0119 19.8159C78.7761 20.0699 78.4315 20.1968 77.978 20.1968C77.5246 20.1968 77.1709 20.0699 76.9169 19.8159C76.6811 19.562 76.5632 19.2083 76.5632 18.7548V11.4631H65.8162V18.7548C65.8162 19.2083 65.6983 19.562 65.4625 19.8159C65.2267 20.0699 64.8729 20.1968 64.4013 20.1968Z" fill="#9E8170"/>
<path d="M40.9121 20.1968C40.4949 20.1968 40.1684 20.0789 39.9326 19.8431C39.7149 19.6073 39.6061 19.2808 39.6061 18.8636V1.9676C39.6061 1.53227 39.724 1.20578 39.9598 0.988115C40.1956 0.752315 40.513 0.634415 40.9121 0.634415C41.293 0.634415 41.5832 0.706969 41.7827 0.852076C42.0004 0.979046 42.1999 1.21485 42.3813 1.55948L49.5097 14.8641H48.6663L55.7675 1.55948C55.9489 1.21485 56.1394 0.979046 56.3389 0.852076C56.5384 0.706969 56.8286 0.634415 57.2095 0.634415C57.6086 0.634415 57.9169 0.752315 58.1346 0.988115C58.3523 1.20578 58.4611 1.53227 58.4611 1.9676V18.8636C58.4611 19.2808 58.3523 19.6073 58.1346 19.8431C57.9351 20.0789 57.6267 20.1968 57.2095 20.1968C56.7923 20.1968 56.4749 20.0789 56.2573 19.8431C56.0396 19.6073 55.9308 19.2808 55.9308 18.8636V4.82442H56.5293L50.2171 16.4966C50.072 16.7686 49.9178 16.9682 49.7546 17.0951C49.5913 17.2221 49.3646 17.2856 49.0744 17.2856C48.7842 17.2856 48.5484 17.2221 48.367 17.0951C48.1856 16.95 48.0224 16.7505 47.8773 16.4966L41.5106 4.79721H42.1636V18.8636C42.1636 19.2808 42.0548 19.6073 41.8371 19.8431C41.6376 20.0789 41.3292 20.1968 40.9121 20.1968Z" fill="#404040"/>
<path d="M26.7805 20.2512C24.9667 20.2512 23.3796 19.8522 22.0192 19.0541C20.6769 18.2379 19.634 17.0951 18.8903 15.6259C18.1647 14.1386 17.802 12.3973 17.802 10.402C17.802 8.89652 18.0106 7.5452 18.4278 6.34806C18.8449 5.13277 19.4435 4.09888 20.2235 3.24637C21.0034 2.37572 21.9466 1.71366 23.0531 1.2602C24.1595 0.806734 25.402 0.580002 26.7805 0.580002C28.6125 0.580002 30.1997 0.97905 31.5419 1.77715C32.8842 2.57524 33.9181 3.7089 34.6436 5.17812C35.3873 6.64734 35.7591 8.37957 35.7591 10.3748C35.7591 11.8803 35.5505 13.2407 35.1333 14.456C34.7162 15.6713 34.1085 16.7142 33.3104 17.5849C32.5305 18.4555 31.5873 19.1176 30.4808 19.5711C29.3744 20.0245 28.1409 20.2512 26.7805 20.2512ZM26.7805 17.8025C28.0502 17.8025 29.1295 17.5123 30.0183 16.9319C30.9252 16.3515 31.6145 15.508 32.0861 14.4016C32.5758 13.2951 32.8207 11.9619 32.8207 10.402C32.8207 8.06215 32.2947 6.24829 31.2426 4.96046C30.1906 3.67262 28.7032 3.02871 26.7805 3.02871C25.5108 3.02871 24.4225 3.31892 23.5156 3.89935C22.6268 4.46165 21.9376 5.29602 21.4478 6.40247C20.9762 7.50892 20.7404 8.84211 20.7404 10.402C20.7404 12.7238 21.2664 14.5376 22.3185 15.8436C23.3886 17.1496 24.876 17.8025 26.7805 17.8025Z" fill="#404040"/>
<path d="M9.25066 20.2512C7.30983 20.2512 5.65015 19.8522 4.27163 19.0541C2.8931 18.256 1.83199 17.1223 1.08831 15.6531C0.362771 14.1658 0 12.4154 0 10.402C0 8.89652 0.208593 7.5452 0.62578 6.34806C1.04297 5.13277 1.64154 4.09888 2.42149 3.24637C3.21959 2.37572 4.19 1.71366 5.33273 1.2602C6.4936 0.806734 7.79957 0.580002 9.25066 0.580002C10.3208 0.580002 11.3457 0.72511 12.3251 1.01533C13.3228 1.30554 14.1843 1.72273 14.9099 2.26689C15.2182 2.46641 15.4178 2.71128 15.5084 3.0015C15.6173 3.27358 15.6354 3.53658 15.5629 3.79052C15.5085 4.04446 15.3906 4.26213 15.2092 4.44351C15.0278 4.60676 14.792 4.69745 14.5018 4.71559C14.2297 4.73373 13.9304 4.63396 13.6039 4.4163C13.0053 3.96284 12.3433 3.62728 11.6177 3.40961C10.8922 3.19195 10.1304 3.08312 9.33228 3.08312C7.95375 3.08312 6.79288 3.37334 5.84968 3.95377C4.90648 4.51607 4.19 5.34137 3.70026 6.42968C3.21052 7.51799 2.96565 8.84211 2.96565 10.402C2.96565 11.9619 3.21052 13.2951 3.70026 14.4016C4.19 15.4899 4.90648 16.3243 5.84968 16.9047C6.79288 17.467 7.95375 17.7481 9.33228 17.7481C10.1304 17.7481 10.8922 17.6393 11.6177 17.4216C12.3614 17.1858 13.0597 16.8412 13.7127 16.3877C14.0392 16.1882 14.3294 16.0975 14.5834 16.1157C14.8555 16.1338 15.0822 16.2245 15.2636 16.3877C15.445 16.551 15.5629 16.7596 15.6173 17.0135C15.6898 17.2493 15.6808 17.5033 15.5901 17.7753C15.5175 18.0293 15.3452 18.2469 15.0731 18.4283C14.3294 19.0269 13.4497 19.4804 12.434 19.7887C11.4182 20.0971 10.3571 20.2512 9.25066 20.2512Z" fill="#404040"/>
<path d="M134.153 34.4258C133.654 34.4258 133.19 34.3712 132.76 34.2619C132.336 34.1458 131.964 33.982 131.643 33.7703C131.513 33.6883 131.425 33.5927 131.377 33.4835C131.336 33.3674 131.326 33.2582 131.346 33.1557C131.373 33.0465 131.425 32.9543 131.5 32.8792C131.575 32.8041 131.671 32.7597 131.787 32.746C131.903 32.7324 132.029 32.7665 132.166 32.8485C132.343 32.9509 132.531 33.0362 132.729 33.1045C132.927 33.1728 133.135 33.224 133.354 33.2582C133.579 33.2923 133.811 33.3094 134.05 33.3094C134.433 33.3094 134.743 33.2684 134.982 33.1865C135.228 33.1045 135.409 32.9816 135.525 32.8177C135.648 32.6538 135.709 32.4456 135.709 32.1929C135.709 31.8515 135.6 31.5989 135.382 31.435C135.163 31.2643 134.822 31.1789 134.357 31.1789H133.077C132.9 31.1789 132.763 31.1345 132.667 31.0458C132.572 30.957 132.524 30.8273 132.524 30.6566C132.524 30.4927 132.572 30.3664 132.667 30.2776C132.763 30.1888 132.9 30.1444 133.077 30.1444H134.183C134.634 30.1444 134.969 30.0625 135.187 29.8986C135.412 29.7347 135.525 29.4855 135.525 29.1509C135.525 28.9392 135.47 28.7549 135.361 28.5978C135.259 28.4408 135.098 28.3213 134.88 28.2393C134.668 28.1506 134.395 28.1062 134.06 28.1062C133.767 28.1062 133.47 28.1437 133.169 28.2189C132.876 28.2871 132.606 28.3896 132.36 28.5261C132.217 28.6081 132.087 28.6422 131.971 28.6286C131.862 28.6081 131.77 28.5603 131.694 28.4852C131.626 28.4032 131.582 28.3076 131.561 28.1984C131.541 28.0891 131.554 27.9799 131.602 27.8706C131.65 27.7614 131.735 27.6692 131.858 27.5941C132.186 27.396 132.551 27.2492 132.954 27.1536C133.364 27.0512 133.78 27 134.204 27C134.791 27 135.276 27.0854 135.658 27.2561C136.047 27.4199 136.338 27.6521 136.529 27.9525C136.727 28.2462 136.826 28.5876 136.826 28.9768C136.826 29.4138 136.696 29.7825 136.437 30.083C136.184 30.3834 135.843 30.5849 135.412 30.6873V30.5337C135.911 30.6088 136.3 30.8 136.58 31.1072C136.86 31.4145 137 31.814 137 32.3056C137 32.729 136.898 33.1011 136.693 33.422C136.488 33.743 136.174 33.9922 135.75 34.1697C135.334 34.3404 134.801 34.4258 134.153 34.4258Z" fill="#6F6F6F"/>
<path d="M123.868 34.4053C123.704 34.4053 123.571 34.3678 123.468 34.2926C123.373 34.2175 123.315 34.1185 123.294 33.9956C123.274 33.8659 123.298 33.7225 123.366 33.5654L126.07 27.5736C126.159 27.3756 126.264 27.2356 126.387 27.1536C126.517 27.0649 126.664 27.0205 126.828 27.0205C126.985 27.0205 127.125 27.0649 127.248 27.1536C127.377 27.2356 127.487 27.3756 127.575 27.5736L130.29 33.5654C130.365 33.7225 130.392 33.8659 130.372 33.9956C130.351 34.1253 130.293 34.2278 130.198 34.3029C130.102 34.3712 129.976 34.4053 129.819 34.4053C129.627 34.4053 129.477 34.3609 129.368 34.2722C129.266 34.1766 129.173 34.0332 129.091 33.842L128.426 32.2954L128.979 32.6538H124.656L125.209 32.2954L124.554 33.842C124.465 34.04 124.373 34.1834 124.277 34.2722C124.182 34.3609 124.045 34.4053 123.868 34.4053ZM126.807 28.5261L125.373 31.9369L125.107 31.6091H128.528L128.272 31.9369L126.828 28.5261H126.807Z" fill="#6F6F6F"/>
<path d="M117.28 34.4053C117.069 34.4053 116.905 34.3473 116.789 34.2312C116.679 34.1083 116.625 33.941 116.625 33.7293V27.6862C116.625 27.4677 116.679 27.3039 116.789 27.1946C116.905 27.0785 117.069 27.0205 117.28 27.0205C117.492 27.0205 117.652 27.0785 117.762 27.1946C117.878 27.3039 117.936 27.4677 117.936 27.6862V30.1649H119.103L118.847 30.339L120.732 27.3585C120.828 27.2151 120.937 27.1195 121.06 27.0717C121.189 27.0239 121.316 27.0137 121.439 27.041C121.562 27.0683 121.667 27.1263 121.756 27.2151C121.845 27.3039 121.893 27.4131 121.9 27.5429C121.913 27.6726 121.872 27.8126 121.777 27.9628L120.056 30.5951L119.544 30.2161C119.988 30.2844 120.363 30.4449 120.671 30.6975C120.978 30.9502 121.241 31.3018 121.459 31.7525L122.299 33.4732C122.388 33.644 122.415 33.7976 122.381 33.9342C122.354 34.0707 122.285 34.18 122.176 34.2619C122.074 34.337 121.954 34.3814 121.818 34.3951C121.688 34.4087 121.558 34.3848 121.428 34.3234C121.306 34.2551 121.207 34.1424 121.131 33.9854L120.322 32.2441C120.158 31.8891 119.96 31.6364 119.728 31.4862C119.503 31.336 119.219 31.2609 118.878 31.2609H117.936V33.7293C117.936 33.941 117.881 34.1083 117.772 34.2312C117.663 34.3473 117.499 34.4053 117.28 34.4053Z" fill="#6F6F6F"/>
<path d="M108.665 34.4053C108.501 34.4053 108.368 34.3678 108.265 34.2926C108.17 34.2175 108.112 34.1185 108.091 33.9956C108.071 33.8659 108.095 33.7225 108.163 33.5654L110.867 27.5736C110.956 27.3756 111.062 27.2356 111.184 27.1536C111.314 27.0649 111.461 27.0205 111.625 27.0205C111.782 27.0205 111.922 27.0649 112.045 27.1536C112.175 27.2356 112.284 27.3756 112.373 27.5736L115.087 33.5654C115.162 33.7225 115.189 33.8659 115.169 33.9956C115.148 34.1253 115.09 34.2278 114.995 34.3029C114.899 34.3712 114.773 34.4053 114.616 34.4053C114.424 34.4053 114.274 34.3609 114.165 34.2722C114.063 34.1766 113.97 34.0332 113.888 33.842L113.223 32.2954L113.776 32.6538H109.453L110.007 32.2954L109.351 33.842C109.262 34.04 109.17 34.1834 109.075 34.2722C108.979 34.3609 108.842 34.4053 108.665 34.4053ZM111.604 28.5261L110.17 31.9369L109.904 31.6091H113.325L113.069 31.9369L111.625 28.5261H111.604Z" fill="#6F6F6F"/>
<path d="M104.107 34.4258C103.608 34.4258 103.144 34.3712 102.714 34.2619C102.291 34.1458 101.918 33.982 101.598 33.7703C101.468 33.6883 101.379 33.5927 101.331 33.4835C101.29 33.3674 101.28 33.2582 101.3 33.1557C101.328 33.0465 101.379 32.9543 101.454 32.8792C101.529 32.8041 101.625 32.7597 101.741 32.746C101.857 32.7324 101.983 32.7665 102.12 32.8485C102.297 32.9509 102.485 33.0362 102.683 33.1045C102.881 33.1728 103.09 33.224 103.308 33.2582C103.533 33.2923 103.766 33.3094 104.005 33.3094C104.387 33.3094 104.698 33.2684 104.937 33.1865C105.182 33.1045 105.363 32.9816 105.479 32.8177C105.602 32.6538 105.664 32.4456 105.664 32.1929C105.664 31.8515 105.555 31.5989 105.336 31.435C105.118 31.2643 104.776 31.1789 104.312 31.1789H103.031C102.854 31.1789 102.717 31.1345 102.622 31.0458C102.526 30.957 102.478 30.8273 102.478 30.6566C102.478 30.4927 102.526 30.3664 102.622 30.2776C102.717 30.1888 102.854 30.1444 103.031 30.1444H104.138C104.588 30.1444 104.923 30.0625 105.141 29.8986C105.367 29.7347 105.479 29.4855 105.479 29.1509C105.479 28.9392 105.425 28.7549 105.316 28.5978C105.213 28.4408 105.053 28.3213 104.834 28.2393C104.622 28.1506 104.349 28.1062 104.015 28.1062C103.721 28.1062 103.424 28.1437 103.124 28.2189C102.83 28.2871 102.56 28.3896 102.314 28.5261C102.171 28.6081 102.041 28.6422 101.925 28.6286C101.816 28.6081 101.724 28.5603 101.649 28.4852C101.58 28.4032 101.536 28.3076 101.516 28.1984C101.495 28.0891 101.509 27.9799 101.557 27.8706C101.604 27.7614 101.69 27.6692 101.813 27.5941C102.14 27.396 102.506 27.2492 102.909 27.1536C103.318 27.0512 103.735 27 104.158 27C104.745 27 105.23 27.0854 105.613 27.2561C106.002 27.4199 106.292 27.6521 106.483 27.9525C106.681 28.2462 106.78 28.5876 106.78 28.9768C106.78 29.4138 106.65 29.7825 106.391 30.083C106.138 30.3834 105.797 30.5849 105.367 30.6873V30.5337C105.865 30.6088 106.254 30.8 106.534 31.1072C106.814 31.4145 106.954 31.814 106.954 32.3056C106.954 32.729 106.852 33.1011 106.647 33.422C106.442 33.743 106.128 33.9922 105.705 34.1697C105.288 34.3404 104.756 34.4258 104.107 34.4258Z" fill="#6F6F6F"/>
<path d="M90.6317 34.4053C90.4678 34.4053 90.3347 34.3678 90.2322 34.2926C90.1366 34.2175 90.0786 34.1185 90.0581 33.9956C90.0376 33.8659 90.0615 33.7225 90.1298 33.5654L92.8338 27.5736C92.9226 27.3756 93.0284 27.2356 93.1513 27.1536C93.2811 27.0649 93.4279 27.0205 93.5918 27.0205C93.7488 27.0205 93.8888 27.0649 94.0117 27.1536C94.1415 27.2356 94.2507 27.3756 94.3395 27.5736L97.0537 33.5654C97.1288 33.7225 97.1562 33.8659 97.1357 33.9956C97.1152 34.1253 97.0571 34.2278 96.9615 34.3029C96.866 34.3712 96.7396 34.4053 96.5826 34.4053C96.3914 34.4053 96.2412 34.3609 96.1319 34.2722C96.0295 34.1766 95.9373 34.0332 95.8554 33.842L95.1896 32.2954L95.7427 32.6538H91.4204L91.9735 32.2954L91.3179 33.842C91.2292 34.04 91.137 34.1834 91.0414 34.2722C90.9458 34.3609 90.8092 34.4053 90.6317 34.4053ZM93.5713 28.5261L92.1373 31.9369L91.871 31.6091H95.292L95.036 31.9369L93.5918 28.5261H93.5713Z" fill="#6F6F6F"/>
<path d="M82.8839 34.4053C82.6722 34.4053 82.5084 34.3473 82.3923 34.2312C82.283 34.1083 82.2284 33.941 82.2284 33.7293V27.6965C82.2284 27.478 82.283 27.3107 82.3923 27.1946C82.5084 27.0785 82.6722 27.0205 82.8839 27.0205C83.0956 27.0205 83.2561 27.0785 83.3653 27.1946C83.4814 27.3107 83.5394 27.478 83.5394 27.6965V30.1137H87.2575V27.6965C87.2575 27.478 87.3121 27.3107 87.4213 27.1946C87.5374 27.0785 87.7013 27.0205 87.913 27.0205C88.1246 27.0205 88.2851 27.0785 88.3944 27.1946C88.5104 27.3107 88.5685 27.478 88.5685 27.6965V33.7293C88.5685 33.941 88.5104 34.1083 88.3944 34.2312C88.2851 34.3473 88.1246 34.4053 87.913 34.4053C87.7013 34.4053 87.5374 34.3473 87.4213 34.2312C87.3121 34.1083 87.2575 33.941 87.2575 33.7293V31.2097H83.5394V33.7293C83.5394 33.941 83.4848 34.1083 83.3756 34.2312C83.2663 34.3473 83.1024 34.4053 82.8839 34.4053Z" fill="#6F6F6F"/>
<path d="M72.4332 34.3234C72.2078 34.3234 72.0337 34.2653 71.9108 34.1492C71.7947 34.0263 71.7367 33.8522 71.7367 33.6269V27.6965C71.7367 27.478 71.7913 27.3107 71.9005 27.1946C72.0166 27.0785 72.1805 27.0205 72.3922 27.0205C72.6039 27.0205 72.7643 27.0785 72.8736 27.1946C72.9897 27.3107 73.0477 27.478 73.0477 27.6965V30.1137H75.004C75.5161 30.1137 75.9566 30.1957 76.3253 30.3595C76.694 30.5166 76.974 30.7522 77.1652 31.0663C77.3632 31.3735 77.4622 31.7559 77.4622 32.2134C77.4622 32.8963 77.2437 33.4186 76.8067 33.7805C76.3765 34.1424 75.7756 34.3234 75.004 34.3234H72.4332ZM73.0477 33.2786H74.8401C75.3045 33.2786 75.6459 33.1933 75.8644 33.0226C76.0829 32.845 76.1921 32.5753 76.1921 32.2134C76.1921 31.8515 76.0829 31.5852 75.8644 31.4145C75.6459 31.2438 75.3045 31.1584 74.8401 31.1584H73.0477V33.2786Z" fill="#6F6F6F"/>
<path d="M69.0946 34.4053C68.8829 34.4053 68.719 34.3473 68.6029 34.2312C68.4937 34.1083 68.4391 33.941 68.4391 33.7293V28.1984H65.858V29.6323C65.858 30.2537 65.817 30.8068 65.735 31.2916C65.6531 31.7764 65.5336 32.2066 65.3766 32.5822C65.2263 32.9577 65.0351 33.2855 64.803 33.5654C64.5776 33.8454 64.3182 34.0878 64.0246 34.2926C63.8743 34.4019 63.7207 34.4395 63.5636 34.4053C63.4066 34.378 63.27 34.2892 63.1539 34.139C63.0447 33.982 63.0071 33.8283 63.0413 33.6781C63.0822 33.5279 63.1813 33.3981 63.3383 33.2889C63.5568 33.1387 63.748 32.9543 63.9119 32.7358C64.0758 32.5173 64.2123 32.251 64.3216 31.9369C64.4308 31.6228 64.5128 31.2506 64.5674 30.8204C64.622 30.3834 64.6493 29.8747 64.6493 29.2943V27.7989C64.6493 27.5736 64.7074 27.4029 64.8235 27.2868C64.9464 27.1639 65.1205 27.1024 65.3458 27.1024H69.0536C69.2789 27.1024 69.4496 27.1639 69.5657 27.2868C69.6886 27.4029 69.7501 27.5736 69.7501 27.7989V33.7293C69.7501 33.941 69.6921 34.1083 69.576 34.2312C69.4667 34.3473 69.3063 34.4053 69.0946 34.4053Z" fill="#6F6F6F"/>
<path d="M57.8004 34.3234C57.5751 34.3234 57.4009 34.2653 57.278 34.1493C57.162 34.0263 57.1039 33.8522 57.1039 33.6269V27.7989C57.1039 27.5736 57.162 27.4029 57.278 27.2868C57.4009 27.1639 57.5751 27.1024 57.8004 27.1024H61.457C61.6277 27.1024 61.7574 27.1468 61.8462 27.2356C61.9418 27.3243 61.9896 27.4507 61.9896 27.6146C61.9896 27.7853 61.9418 27.9184 61.8462 28.014C61.7574 28.1028 61.6277 28.1472 61.457 28.1472H58.3637V30.1342H61.2316C61.4092 30.1342 61.5423 30.1786 61.6311 30.2674C61.7199 30.3561 61.7642 30.4859 61.7642 30.6566C61.7642 30.8273 61.7199 30.957 61.6311 31.0458C61.5423 31.1345 61.4092 31.1789 61.2316 31.1789H58.3637V33.2786H61.457C61.6277 33.2786 61.7574 33.323 61.8462 33.4118C61.9418 33.5006 61.9896 33.6303 61.9896 33.801C61.9896 33.9717 61.9418 34.1015 61.8462 34.1902C61.7574 34.279 61.6277 34.3234 61.457 34.3234H57.8004Z" fill="#6F6F6F"/>
<path d="M50.499 34.3234C50.2737 34.3234 50.0996 34.2653 49.9767 34.1493C49.8606 34.0263 49.8026 33.8522 49.8026 33.6269V27.7989C49.8026 27.5736 49.8606 27.4029 49.9767 27.2868C50.0996 27.1639 50.2737 27.1024 50.499 27.1024H54.3707C54.5414 27.1024 54.6711 27.1468 54.7599 27.2356C54.8555 27.3243 54.9033 27.4507 54.9033 27.6146C54.9033 27.7853 54.8555 27.9184 54.7599 28.014C54.6711 28.1028 54.5414 28.1472 54.3707 28.1472H51.0624V30.1137H53.0699C53.8415 30.1137 54.4424 30.2913 54.8726 30.6463C55.3096 31.0014 55.5281 31.5238 55.5281 32.2134C55.5281 32.8963 55.3096 33.4186 54.8726 33.7805C54.4424 34.1424 53.8415 34.3234 53.0699 34.3234H50.499ZM51.0624 33.2786H52.906C53.3703 33.2786 53.7118 33.1933 53.9303 33.0226C54.1488 32.845 54.258 32.5753 54.258 32.2134C54.258 31.8515 54.1488 31.5852 53.9303 31.4145C53.7118 31.2438 53.3703 31.1584 52.906 31.1584H51.0624V33.2786Z" fill="#6F6F6F"/>
<path d="M43.9779 34.3234C43.7525 34.3234 43.5784 34.2653 43.4555 34.1493C43.3394 34.0263 43.2814 33.8522 43.2814 33.6269V27.7989C43.2814 27.5736 43.3394 27.4029 43.4555 27.2868C43.5784 27.1639 43.7525 27.1024 43.9779 27.1024H47.6344C47.8051 27.1024 47.9349 27.1468 48.0236 27.2356C48.1192 27.3243 48.167 27.4507 48.167 27.6146C48.167 27.7853 48.1192 27.9184 48.0236 28.014C47.9349 28.1028 47.8051 28.1472 47.6344 28.1472H44.5412V30.1342H47.4091C47.5866 30.1342 47.7198 30.1786 47.8085 30.2674C47.8973 30.3561 47.9417 30.4859 47.9417 30.6566C47.9417 30.8273 47.8973 30.957 47.8085 31.0458C47.7198 31.1345 47.5866 31.1789 47.4091 31.1789H44.5412V33.2786H47.6344C47.8051 33.2786 47.9349 33.323 48.0236 33.4118C48.1192 33.5006 48.167 33.6303 48.167 33.801C48.167 33.9717 48.1192 34.1015 48.0236 34.1902C47.9349 34.279 47.8051 34.3234 47.6344 34.3234H43.9779Z" fill="#6F6F6F"/>
<path d="M34.5941 34.4051C34.4029 34.4051 34.2561 34.3505 34.1536 34.2412C34.0512 34.132 34 33.9818 34 33.7906V27.6348C34 27.4368 34.0546 27.2866 34.1639 27.1842C34.2731 27.0749 34.4234 27.0203 34.6145 27.0203C34.7853 27.0203 34.9184 27.0544 35.014 27.1227C35.1164 27.1842 35.2086 27.2934 35.2906 27.4505L37.8204 32.1313H37.4927L40.0226 27.4505C40.1045 27.2934 40.1933 27.1842 40.2889 27.1227C40.3845 27.0544 40.5176 27.0203 40.6883 27.0203C40.8795 27.0203 41.0263 27.0749 41.1288 27.1842C41.2312 27.2866 41.2824 27.4368 41.2824 27.6348V33.7906C41.2824 33.9818 41.2312 34.132 41.1288 34.2412C41.0332 34.3505 40.8864 34.4051 40.6883 34.4051C40.4971 34.4051 40.3503 34.3505 40.2479 34.2412C40.1455 34.132 40.0943 33.9818 40.0943 33.7906V29.0483H40.3196L38.1687 32.9712C38.1004 33.0873 38.0287 33.1726 37.9536 33.2272C37.8785 33.2819 37.7761 33.3092 37.6463 33.3092C37.5166 33.3092 37.4107 33.2819 37.3288 33.2272C37.2469 33.1658 37.1752 33.0804 37.1137 32.9712L34.9423 29.0381H35.1881V33.7906C35.1881 33.9818 35.1369 34.132 35.0345 34.2412C34.9389 34.3505 34.7921 34.4051 34.5941 34.4051Z" fill="#6F6F6F"/>
<rect y="28" width="27" height="2" rx="1" fill="#DCCBC0"/>
<rect y="32" width="27" height="2" rx="1" fill="#DCCBC0"/>
</svg>
