<svg width="40" height="40" viewBox="0 0 40 40" fill="none" xmlns="http://www.w3.org/2000/svg">
<path d="M36.6667 21.6667V10.0001C36.6667 9.11603 36.3155 8.26818 35.6904 7.64306C35.0653 7.01794 34.2174 6.66675 33.3334 6.66675H6.66671C5.78265 6.66675 4.93481 7.01794 4.30968 7.64306C3.68456 8.26818 3.33337 9.11603 3.33337 10.0001V30.0001C3.33337 31.8334 4.83337 33.3334 6.66671 33.3334H21.6667" stroke="#9D7E6C" stroke-width="2" stroke-linecap="round" stroke-linejoin="round"/>
<path d="M36.6667 11.6667L21.7167 21.1667C21.2022 21.4891 20.6072 21.6601 20 21.6601C19.3928 21.6601 18.7979 21.4891 18.2834 21.1667L3.33337 11.6667" stroke="#9D7E6C" stroke-width="2" stroke-linecap="round" stroke-linejoin="round"/>
<path d="M28.3334 28.3333L35 34.9999" stroke="#E46060" stroke-width="2" stroke-linecap="round" stroke-linejoin="round"/>
<path d="M35 28.3333L28.3334 34.9999" stroke="#E46060" stroke-width="2" stroke-linecap="round" stroke-linejoin="round"/>
</svg>
