<svg width="40" height="40" viewBox="0 0 40 40" fill="none" xmlns="http://www.w3.org/2000/svg">
<path d="M36.6667 21.6666V9.99996C36.6667 9.1159 36.3155 8.26806 35.6904 7.64294C35.0653 7.01782 34.2174 6.66663 33.3334 6.66663H6.66671C5.78265 6.66663 4.93481 7.01782 4.30968 7.64294C3.68456 8.26806 3.33337 9.1159 3.33337 9.99996V30C3.33337 31.8333 4.83337 33.3333 6.66671 33.3333H20" stroke="#9D7E6C" stroke-width="2" stroke-linecap="round" stroke-linejoin="round"/>
<path d="M36.6667 11.6666L21.7167 21.1666C21.2022 21.489 20.6072 21.66 20 21.66C19.3928 21.66 18.7979 21.489 18.2834 21.1666L3.33337 11.6666" stroke="#9D7E6C" stroke-width="2" stroke-linecap="round" stroke-linejoin="round"/>
<path d="M26.6666 31.6667L30 35L36.6666 28.3334" stroke="#78B873" stroke-width="2" stroke-linecap="round" stroke-linejoin="round"/>
</svg>
