<svg width="13" height="13" viewBox="0 0 13 13" fill="none" xmlns="http://www.w3.org/2000/svg">
<path d="M9.09194 11.9984C8.29859 11.9692 6.05024 11.6586 3.69556 9.30493C1.34144 6.95074 1.03126 4.7034 1.00151 3.90967C0.957436 2.70007 1.8841 1.52517 2.95456 1.06634C3.08347 1.01069 3.22463 0.989504 3.3642 1.00486C3.50376 1.02021 3.63694 1.07158 3.75066 1.15392C4.63215 1.79618 5.24038 2.76782 5.76266 3.53181C5.87757 3.69966 5.92671 3.90391 5.9007 4.10565C5.87469 4.30738 5.77535 4.4925 5.62162 4.62573L4.54675 5.42387C4.49482 5.46136 4.45827 5.51642 4.44388 5.57882C4.42949 5.64123 4.43825 5.70673 4.46852 5.76317C4.71203 6.20548 5.14506 6.86426 5.6409 7.35999C6.13729 7.85573 6.82706 8.31732 7.30031 8.58832C7.35964 8.62162 7.42949 8.63093 7.49548 8.61433C7.56147 8.59774 7.61859 8.55649 7.65511 8.49909L8.35479 7.43435C8.48343 7.26352 8.67319 7.14907 8.88433 7.11498C9.09548 7.08089 9.31162 7.12981 9.4875 7.25148C10.2627 7.78798 11.1673 8.38562 11.8295 9.23333C11.9186 9.34785 11.9752 9.48417 11.9935 9.62807C12.0118 9.77196 11.9912 9.91813 11.9336 10.0513C11.4725 11.127 10.3056 12.0431 9.09194 11.9984Z" fill="#9D7E6C"/>
</svg>
