<svg width="12" height="12" viewBox="0 0 12 12" fill="none" xmlns="http://www.w3.org/2000/svg">
<path fill-rule="evenodd" clip-rule="evenodd" d="M8.47412 11.2485C7.71684 11.2206 5.57069 10.9241 3.32304 8.67744C1.07592 6.43025 0.77984 4.28506 0.751442 3.52741C0.709371 2.37279 1.59392 1.2513 2.61572 0.813327C2.73876 0.760206 2.87351 0.739981 3.00673 0.754637C3.13996 0.769293 3.26708 0.818327 3.37563 0.896926C4.21705 1.50999 4.79763 2.43747 5.29617 3.16672C5.40587 3.32694 5.45277 3.52191 5.42794 3.71448C5.40311 3.90705 5.30829 4.08375 5.16155 4.21093L4.13554 4.97278C4.08597 5.00857 4.05108 5.06113 4.03734 5.1207C4.02361 5.18026 4.03196 5.24279 4.06086 5.29666C4.2933 5.71887 4.70665 6.3477 5.17995 6.8209C5.65378 7.29411 6.31219 7.73471 6.76393 7.99339C6.82057 8.02518 6.88724 8.03407 6.95023 8.01823C7.01322 8.00238 7.06775 7.96302 7.1026 7.90822L7.77048 6.89188C7.89327 6.72881 8.07441 6.61956 8.27595 6.58703C8.4775 6.55449 8.68382 6.60118 8.85171 6.71732C9.59164 7.22943 10.4551 7.79991 11.0873 8.60908C11.1723 8.7184 11.2263 8.84853 11.2438 8.98588C11.2613 9.12323 11.2416 9.26276 11.1867 9.38987C10.7465 10.4167 9.63265 11.2911 8.47412 11.2485Z" stroke="#9D7E6C"/>
</svg>
