<svg width="20" height="12" viewBox="0 0 20 12" fill="none" xmlns="http://www.w3.org/2000/svg">
<path d="M10.8313 11.9231C4.47115 11.9231 0.843416 7.4763 0.692261 0.0769043H3.87815C3.9828 5.50787 6.33153 7.80833 8.1919 8.28265V0.0769043H11.1918V4.76082C13.0289 4.55923 14.959 2.42479 15.6101 0.0769043H18.61C18.3646 1.29458 17.8755 2.44753 17.1733 3.46364C16.4711 4.47974 15.5708 5.33713 14.5288 5.98219C15.6919 6.57161 16.7192 7.40587 17.543 8.42992C18.3668 9.45397 18.9682 10.6445 19.3076 11.9231H16.0055C15.7008 10.8126 15.0814 9.81851 14.2251 9.06545C13.3688 8.31239 12.3136 7.83383 11.1918 7.68975V11.9231H10.8313Z" fill="white"/>
</svg>
