<svg width="16" height="16" viewBox="0 0 16 16" fill="none" xmlns="http://www.w3.org/2000/svg">
<path d="M7.99648 0.103761C6.54173 0.104314 5.1154 0.506778 3.87487 1.26675C2.63434 2.02671 1.62784 3.11465 0.966412 4.4105C0.304984 5.70636 0.0143434 7.15977 0.126557 8.61037C0.238771 10.061 0.749478 11.4524 1.60233 12.6311L0.615272 15.565L3.65343 14.5936C4.68124 15.2716 5.85335 15.6999 7.07614 15.8442C8.29893 15.9885 9.53852 15.8448 10.6959 15.4246C11.8533 15.0045 12.8964 14.3194 13.7419 13.4242C14.5873 12.529 15.2118 11.4485 15.5654 10.2689C15.9189 9.08933 15.9918 7.84342 15.7781 6.63067C15.5644 5.41793 15.0701 4.27197 14.3347 3.28431C13.5993 2.29665 12.6432 1.49468 11.5427 0.942434C10.4421 0.390191 9.22775 0.102987 7.99648 0.103761ZM12.1934 11.2727L11.3525 12.1138C10.4681 12.9983 8.12282 12.0249 6.04408 9.94199C3.96534 7.85904 3.03356 5.51943 3.87453 4.64479L4.7155 3.80371C4.87835 3.654 5.09148 3.57092 5.31267 3.57092C5.53387 3.57092 5.74699 3.654 5.90984 3.80371L7.14959 5.03966C7.25068 5.13795 7.32484 5.26055 7.36496 5.39573C7.40508 5.53091 7.40981 5.67413 7.3787 5.81166C7.34759 5.94919 7.28168 6.07643 7.18729 6.18117C7.09291 6.28592 6.9732 6.36466 6.83965 6.40986C6.64263 6.47282 6.47747 6.60935 6.37855 6.79102C6.27964 6.97269 6.25459 7.18551 6.30861 7.38519C6.52971 8.31314 7.72405 9.4642 8.61043 9.68532C8.80902 9.727 9.01598 9.69564 9.19331 9.59699C9.37064 9.49834 9.50644 9.33903 9.57577 9.1483C9.62045 9.01279 9.6995 8.89119 9.8052 8.79535C9.9109 8.69952 10.0396 8.63273 10.1788 8.6015C10.3181 8.57027 10.463 8.57568 10.5995 8.61718C10.736 8.65869 10.8594 8.73488 10.9577 8.83832L12.1954 10.0782C12.3448 10.2413 12.4276 10.4546 12.4272 10.6758C12.4268 10.8971 12.3434 11.1101 12.1934 11.2727Z" fill="white"/>
</svg>
